<?xml version="1.0" encoding="UTF-8"?>
<svg width="128px" height="128px" viewBox="0 0 128 128" version="1.1" xmlns="http://www.w3.org/2000/svg" xmlns:xlink="http://www.w3.org/1999/xlink" style="background: #FFFFFF;">
    <!-- Generator: Sketch 64 (93537) - https://sketch.com -->
    <title>logo - blue@3x</title>
    <desc>Created with Sketch.</desc>
    <defs>
        <path d="M47.5655616,3.66470609 L59.0073796,23.9647058 C60.2443185,26.1592747 60.2443185,28.8407253 59.0073796,31.0352942 L47.5655616,51.3352939 C46.2894455,53.5993709 43.8922108,55 41.2932655,55 L18.7067345,55 C16.1077892,55 13.7105545,53.5993709 12.4344384,51.3352939 L0.99262037,31.0352942 C-0.244318475,28.8407253 -0.244318475,26.1592747 0.99262037,23.9647058 L12.4344384,3.66470609 C13.7105545,1.40062915 16.1077892,8.8817842e-16 18.7067345,8.8817842e-16 L41.2932655,8.8817842e-16 C43.8922108,8.8817842e-16 46.2894455,1.40062915 47.5655616,3.66470609 Z" id="path-1"></path>
        <linearGradient x1="31.3614674%" y1="0%" x2="68.6385326%" y2="100%" id="linearGradient-3">
            <stop stop-color="#7381FF" offset="0%"></stop>
            <stop stop-color="#3D4FF2" offset="100%"></stop>
        </linearGradient>
        <path d="M47.5655616,3.66470609 L59.0073796,23.9647058 C60.2443185,26.1592747 60.2443185,28.8407253 59.0073796,31.0352942 L47.5655616,51.3352939 C46.2894455,53.5993709 43.8922108,55 41.2932655,55 L18.7067345,55 C16.1077892,55 13.7105545,53.5993709 12.4344384,51.3352939 L0.99262037,31.0352942 C-0.244318475,28.8407253 -0.244318475,26.1592747 0.99262037,23.9647058 L12.4344384,3.66470609 C13.7105545,1.40062915 16.1077892,8.8817842e-16 18.7067345,8.8817842e-16 L41.2932655,8.8817842e-16 C43.8922108,8.8817842e-16 46.2894455,1.40062915 47.5655616,3.66470609 Z" id="path-4"></path>
        <linearGradient x1="50%" y1="16.9111529%" x2="0%" y2="83.0888471%" id="linearGradient-6">
            <stop stop-color="#3646D6" offset="0%"></stop>
            <stop stop-color="#00109C" offset="100%"></stop>
        </linearGradient>
        <path d="M47.5655616,3.66470609 L59.0073796,23.9647058 C60.2443185,26.1592747 60.2443185,28.8407253 59.0073796,31.0352942 L47.5655616,51.3352939 C46.2894455,53.5993709 43.8922108,55 41.2932655,55 L18.7067345,55 C16.1077892,55 13.7105545,53.5993709 12.4344384,51.3352939 L0.99262037,31.0352942 C-0.244318475,28.8407253 -0.244318475,26.1592747 0.99262037,23.9647058 L12.4344384,3.66470609 C13.7105545,1.40062915 16.1077892,8.8817842e-16 18.7067345,8.8817842e-16 L41.2932655,8.8817842e-16 C43.8922108,8.8817842e-16 46.2894455,1.40062915 47.5655616,3.66470609 Z" id="path-7"></path>
        <linearGradient x1="33.3321978%" y1="32.5124292%" x2="68.5160792%" y2="67.4875708%" id="linearGradient-9">
            <stop stop-color="#3A4BE8" offset="0%"></stop>
            <stop stop-color="#2D3BB5" offset="100%"></stop>
        </linearGradient>
    </defs>
    <g id="Page-1" stroke="none" stroke-width="1" fill="none" fill-rule="evenodd">
        <g id="logo---blue" transform="translate(11.000000, 15.000000)">
            <g id="Group-10" transform="translate(0.000000, 70.000000)" fill="#000000" fill-rule="nonzero">
                <path d="M16.5961354,7.86512259 L16.5961354,27.5265528 L13.3929933,27.5265528 L13.3929933,24.6960933 C11.8871306,26.8989599 10.1118952,28 7.21748964,28 C1.81459931,28 0,24.3807239 0,19.5054757 L0,7.86512259 L3.39610249,7.86512259 L3.39610249,19.5054757 C3.39610249,22.6111952 4.28449203,24.8541712 7.79637074,24.8541712 C12.1958672,24.8541712 13.2764452,21.1570358 13.2764452,17.0281355 L13.2764452,7.86512259 L16.5961354,7.86512259 Z M30.1240466,7.39316962 C30.7808837,7.39316962 31.3968132,7.47181534 32.0150582,7.58978392 L32.0150582,11.1681642 C31.3597648,11.0108728 30.7808837,10.9322271 30.0854545,10.9322271 C25.7639141,10.9322271 24.4131915,13.9207644 24.4131915,18.3650341 L24.4131915,27.528047 L21.0927295,27.528047 L21.0927295,7.86504394 L24.2958716,7.86504394 L24.2958716,10.8142585 C25.4922259,8.65150115 27.4226014,7.39316962 30.1240466,7.39316962 Z M35.0614393,27.5275752 L35.0614393,0.000786457207 L38.4575418,0.000786457207 L38.4575418,27.5275752 L35.0614393,27.5275752 Z M52.7380756,11.4437388 C49.303381,11.4437388 46.9492645,13.8817562 46.9492645,17.6960736 C46.9492645,21.5111775 49.303381,23.9484084 52.7380756,23.9484084 C56.2121341,23.9484084 58.5276585,21.391636 58.5276585,17.6960736 C58.5276585,13.9997247 56.2121341,11.4437388 52.7380756,11.4437388 Z M47.1422249,-1.77635684e-15 L47.1422249,10.6966045 C48.6087237,8.80910717 50.7698798,7.3934842 53.8178818,7.3934842 C58.7985749,7.3934842 62.8113787,11.2078017 62.8113787,17.6960736 C62.8113787,24.1450227 58.7985749,27.9994495 53.7816053,27.9994495 C50.7698798,27.9994495 48.5709035,26.7010086 47.1422249,24.7348656 L47.1422249,27.5275752 L42.9750528,27.5275752 L42.9750528,-1.77635684e-15 L47.1422249,-1.77635684e-15 Z M75.2911291,11.5224632 C71.8170707,11.5224632 69.3471779,14.0391262 69.3471779,17.6969387 C69.3471779,21.3531783 71.8170707,23.8706278 75.2911291,23.8706278 C78.7644158,23.8706278 81.2343085,21.3531783 81.2343085,17.6969387 C81.2343085,14.0391262 78.7644158,11.5224632 75.2911291,11.5224632 Z M75.2911291,7.39356285 C81.158668,7.39356285 85.5188005,11.6797546 85.5188005,17.6969387 C85.5188005,23.7125499 81.158668,27.9995281 75.2911291,27.9995281 C69.4251339,27.9995281 65.0634577,23.7125499 65.0634577,17.6969387 C65.0634577,11.6797546 69.4251339,7.39356285 75.2911291,7.39356285 Z M95.887333,20.9211773 L90.8695916,27.5266314 L85.8140299,27.5266314 L93.3788482,17.6188435 L85.930578,7.86441478 L91.0239599,7.86441478 L95.9259251,14.2748275 L100.79007,7.86441478 L105.843316,7.86441478 L98.4344099,17.5787342 L106,27.5266314 L100.904303,27.5266314 L95.887333,20.9211773 Z" id="Combined-Shape"></path>
            </g>
            <g id="Logomark---blue" transform="translate(24.000000, 0.000000)">
                <g id="Combined-Shape-Clipped">
                    <mask id="mask-2" fill="white">
                        <use xlink:href="#path-1"></use>
                    </mask>
                    <g id="path-1"></g>
                    <path d="M30,27.5 L31.4418605,27.5 L15.9418605,55 L14.5,55 L-1,27.5 L11.3638519,5.56413369 C12.3400965,3.83208693 14.5356003,3.21938817 16.2676471,4.19563271 C16.8401783,4.51833212 17.3134487,4.99160248 17.6361481,5.56413369 L30,27.5 Z" id="Combined-Shape" fill="url(#linearGradient-3)" fill-rule="nonzero" mask="url(#mask-2)"></path>
                </g>
                <g id="Polygon-Copy-3-Clipped">
                    <mask id="mask-5" fill="white">
                        <use xlink:href="#path-4"></use>
                    </mask>
                    <g id="path-1"></g>
                    <path d="M48.6361481,5.56413369 L61,27.5 L61,28.9473684 L30,28.9473684 L30,27.5 L42.3638519,5.56413369 C43.3400965,3.83208693 45.5356003,3.21938817 47.2676471,4.19563271 C47.8401783,4.51833212 48.3134487,4.99160248 48.6361481,5.56413369 Z" id="Polygon-Copy-3" fill="url(#linearGradient-6)" fill-rule="nonzero" mask="url(#mask-5)"></path>
                </g>
                <g id="Path-Clipped">
                    <mask id="mask-8" fill="white">
                        <use xlink:href="#path-7"></use>
                    </mask>
                    <g id="path-1"></g>
                    <polygon id="Path" fill="url(#linearGradient-9)" fill-rule="nonzero" mask="url(#mask-8)" points="30 27.5 61 27.5 45.5 55 14.5 55"></polygon>
                </g>
            </g>
        </g>
    </g>
</svg>